# xmcd
#
# Track frame offsets: 
#        150
#        61062
#        112815
#        156285
#        198908
#        242963
#        244923
#        247660
#
# Disc length: 3333 seconds
#
# Revision: 0
# Processed by: cddbd v1.5.2PL0 Copyright (c) Steve Scherf et al.
# Submitted via: ExactAudioCopy v1.3
#
DISCID=5e0d0308
DTITLE=Various Artist - American Country Countdown with Kix Brooks, S
DTITLE=how 2009-31 Hour #4
DYEAR=2009
DGENRE=Hick 'ic
TTITLE0=Segment 13
TTITLE1=Segment 14
TTITLE2=Segment 15
TTITLE3=Segment 16
TTITLE4=Segment 17
TTITLE5=Promo 1
TTITLE6=Promo 2
TTITLE7=Promo 3
EXTD=
EXTT0=
EXTT1=
EXTT2=
EXTT3=
EXTT4=
EXTT5=
EXTT6=
EXTT7=
PLAYORDER=
